<svg width="355" height="431" viewBox="0 0 355 431" fill="none" xmlns="http://www.w3.org/2000/svg">
<rect x="31" y="118" width="293" height="182" fill="white"/>
<path d="M0 163C0 154.716 6.71573 148 15 148H20V269H15C6.71573 269 0 262.284 0 254V163Z" fill="white"/>
<path d="M355 254C355 262.284 348.284 269 340 269H335V148H340C348.284 148 355 154.716 355 163V254Z" fill="white"/>
<path d="M231 111.5C231 105.798 225.258 100.329 215.037 96.2972C204.817 92.2652 190.954 90 176.5 90C162.046 90 148.183 92.2652 137.963 96.2972C127.742 100.329 122 105.798 122 111.5L176.5 111.5H231Z" fill="white"/>
<rect x="171" width="12" height="78" rx="6" fill="white"/>
<rect x="270.088" y="23.1406" width="12.0733" height="77.4705" rx="6.03666" transform="rotate(45 270.088 23.1406)" fill="white"/>
<rect width="12.0733" height="77.4705" rx="6.03666" transform="matrix(-0.707107 0.707107 0.707107 0.707107 83.9954 23.1406)" fill="white"/>
<path d="M125 311H225V316C225 324.284 218.284 331 210 331H140C131.716 331 125 324.284 125 316V311Z" fill="white"/>
<path d="M166 331H186V421C186 426.523 181.523 431 176 431V431C170.477 431 166 426.523 166 421V331Z" fill="white"/>
<path d="M76.8848 181.57C76.8672 185.385 79.2578 189.287 84.5137 190.887L82.2285 194.402C78.6426 193.26 76.1289 190.957 74.6875 188.074C73.2285 191.238 70.627 193.752 66.8652 195L64.5449 191.484C69.8711 189.779 72.3145 185.613 72.3145 181.57V181.113H65.7402V177.527H83.3184V181.113H76.8848V181.57ZM69.748 206.672V196.301H74.2832V203.086H92.0371V206.672H69.748ZM86.6934 198.41V175.277H91.1934V198.41H86.6934ZM123.01 175.242V195.316H118.756V186.809H116.189V194.262H112.006V175.84H116.189V183.152H118.756V175.242H123.01ZM95.3418 182.027V178.547H101.002V175.523H105.467V178.547H111.057V182.027H95.3418ZM96.3262 188.672C96.3086 185.314 99.2441 183.082 103.252 183.082C107.312 183.082 110.23 185.314 110.248 188.672C110.23 191.994 107.312 194.209 103.252 194.227C99.2441 194.209 96.3086 191.994 96.3262 188.672ZM100.334 188.672C100.316 190.148 101.494 191.045 103.252 191.027C104.992 191.045 106.188 190.148 106.205 188.672C106.188 187.178 104.992 186.299 103.252 186.316C101.512 186.299 100.316 187.178 100.334 188.672ZM101.002 201.434C100.984 197.725 105.186 195.615 112.076 195.598C118.984 195.615 123.15 197.725 123.186 201.434C123.15 205.125 118.984 207.252 112.076 207.234C105.186 207.252 100.984 205.125 101.002 201.434ZM105.502 201.434C105.467 203.051 107.734 203.859 112.076 203.859C116.436 203.859 118.65 203.051 118.65 201.434C118.65 199.746 116.436 198.955 112.076 198.973C107.734 198.955 105.467 199.746 105.502 201.434ZM155.811 189.762V193.383H143.436V195.756C148.99 196.16 152.295 198.164 152.33 201.469C152.295 205.178 148.094 207.252 141.186 207.234C134.172 207.252 129.971 205.178 129.971 201.469C129.971 198.146 133.293 196.143 138.971 195.738V193.383H126.631V189.762H155.811ZM127.932 185.051C133.855 184.523 137.125 182.344 137.934 180.129H129.303V176.613H153.174V180.129H144.473C145.246 182.361 148.498 184.523 154.58 185.051L152.998 188.566C146.951 187.986 142.891 185.719 141.186 182.607C139.498 185.701 135.473 188.004 129.408 188.566L127.932 185.051ZM134.541 201.469C134.523 203.016 136.756 203.859 141.186 203.859C145.527 203.859 147.812 203.016 147.83 201.469C147.812 199.852 145.527 199.078 141.186 199.043C136.756 199.078 134.523 199.852 134.541 201.469ZM184.533 175.277V198.27H180.033V175.277H184.533ZM158.236 185.367C158.236 180.674 162.068 177.299 166.99 177.316C171.895 177.299 175.727 180.674 175.744 185.367C175.727 190.131 171.895 193.488 166.99 193.488C162.068 193.488 158.236 190.131 158.236 185.367ZM162.631 185.367C162.596 188.039 164.477 189.586 166.99 189.586C169.416 189.586 171.297 188.039 171.314 185.367C171.297 182.766 169.416 181.201 166.99 181.219C164.477 181.201 162.596 182.766 162.631 185.367ZM163.088 206.672V195.949H167.623V203.086H185.377V206.672H163.088ZM212.061 194.824C218.723 194.824 222.836 197.109 222.854 201.012C222.836 204.967 218.723 207.27 212.061 207.27C205.293 207.27 201.074 204.967 201.092 201.012C201.074 197.109 205.293 194.824 212.061 194.824ZM198.104 192.293V177.246H202.568V181.289H209.107V177.246H213.607V192.293H198.104ZM202.568 188.742H209.107V184.77H202.568V188.742ZM205.592 201.012C205.557 202.84 207.859 203.789 212.061 203.789C216.209 203.789 218.424 202.84 218.424 201.012C218.424 199.184 216.209 198.322 212.061 198.305C207.859 198.322 205.557 199.184 205.592 201.012ZM218.037 194.121V175.242H222.537V182.66H226.861V186.422H222.537V194.121H218.037ZM245.037 186.562V190.5H257.447V194.086H228.268V190.5H240.607V186.562H245.037ZM229.779 184.98C236.846 184.084 240.52 180.428 240.537 176.824V175.77H245.107V176.824C245.09 180.568 248.676 184.084 255.9 184.98L254.178 188.461C248.764 187.652 244.791 185.385 242.77 182.186C240.73 185.367 236.758 187.67 231.361 188.461L229.779 184.98ZM231.607 201.574C231.607 197.936 235.809 195.861 242.822 195.844C249.783 195.861 253.932 197.936 253.967 201.574C253.932 205.213 249.783 207.252 242.822 207.234C235.809 207.252 231.607 205.213 231.607 201.574ZM236.178 201.574C236.16 203.139 238.34 203.895 242.822 203.895C247.199 203.895 249.449 203.139 249.467 201.574C249.449 199.975 247.199 199.271 242.822 199.254C238.34 199.271 236.16 199.975 236.178 201.574ZM286.17 175.242V207.305H281.635V175.242H286.17ZM260.33 188.883C260.312 181.904 263.881 177.492 268.803 177.492C273.619 177.492 277.205 181.904 277.205 188.883C277.205 195.914 273.619 200.309 268.803 200.309C263.881 200.309 260.312 195.914 260.33 188.883ZM264.654 188.883C264.637 193.646 266.307 196.248 268.803 196.23C271.229 196.248 272.863 193.646 272.881 188.883C272.863 184.137 271.229 181.535 268.803 181.535C266.307 181.535 264.637 184.137 264.654 188.883ZM122.922 236.945V240.145H126.367V236.945H130.516V246.666C134.066 245.049 135.578 242.061 135.578 239.16V236.699H140.078V239.16C140.061 242.43 141.625 245.523 145.633 246.824L143.312 250.164C140.553 249.215 138.777 247.387 137.758 245.084C136.703 247.316 134.945 249.162 132.344 250.164L130.516 247.404V249.883H118.773V236.945H122.922ZM115.645 226.961C115.609 222.566 119.23 219.455 124.152 219.438C128.213 219.455 131.465 221.705 132.344 225.098H137.723V218.242H142.188V235.188H137.723V228.789H132.361C131.5 232.252 128.23 234.555 124.152 234.555C119.23 234.555 115.609 231.426 115.645 226.961ZM119.898 226.961C119.881 229.387 121.639 230.881 124.152 230.898C126.578 230.881 128.318 229.387 128.336 226.961C128.318 224.605 126.578 223.146 124.152 223.129C121.639 223.146 119.881 224.605 119.898 226.961ZM122.922 246.473H126.367V243.449H122.922V246.473ZM154.176 237.438V240.145H167.359V237.438H171.824V249.883H149.746V237.438H154.176ZM146.336 235.82V232.199H175.516V235.82H146.336ZM147.777 227.277C154.914 226.416 158.605 222.936 158.641 219.648V218.559H163.246V219.648C163.246 222.848 166.92 226.469 174.074 227.277L172.492 230.793C166.99 230.09 162.982 227.805 160.926 224.711C158.852 227.805 154.844 230.09 149.395 230.793L147.777 227.277ZM154.176 246.367H167.359V243.555H154.176V246.367ZM204.344 218.242V250.234H199.879V218.242H204.344ZM179.172 242.324V221.301H183.602V238.51C187.926 238.439 192.566 238.035 197.277 237.121L197.84 240.812C192.232 241.99 186.924 242.342 181.984 242.324H179.172ZM233.805 218.242V230.125H238.516V233.781H233.805V250.305H229.305V218.242H233.805ZM209.828 242.535V221.195H224.84V224.816H214.293V238.844C218.934 238.809 222.766 238.562 227.02 237.824L227.512 241.586C222.537 242.43 218.178 242.553 212.535 242.535H209.828Z" fill="black"/>
</svg>
