<svg xmlns="http://www.w3.org/2000/svg" width="200" height="100" viewBox="0 0 200 100" fill="none">
  <path d="M15.3226 24.5455C6.23657 34.4886 3.87098 49.0341 9.40861 61.7614C11.0215 65.5682 14.4624 70.3409 17.2043 72.6705C19.3548 74.4886 19.4624 74.4886 20.4839 73.5227C21.0215 73.0114 21.5054 72.3864 21.5054 72.1591C21.5054 71.9886 20.0538 70.2273 18.3333 68.2386C10.7527 59.7159 8.33334 49.0909 11.5591 38.8636C13.2258 33.6932 14.8925 30.8523 18.7097 26.5341C21.6129 23.3523 21.6667 23.2955 20.6989 22.1591C20.1613 21.5341 19.4624 21.0227 19.1398 21.0227C18.871 21.0227 17.1505 22.6136 15.3226 24.5455Z" fill="black"/>
  <path d="M55.4838 21.7045C54.301 22.9545 54.8386 24.1477 58.0107 27.4432C68.7096 38.6364 68.8171 55.7955 58.2257 67.6705C54.9462 71.3068 54.7311 71.7614 55.2688 73.0114C55.6451 73.8068 56.1827 74.4318 56.5591 74.4318C56.9354 74.4318 58.8709 72.6136 60.9139 70.4545C66.6128 64.3182 69.8924 55.7955 69.8924 47.5C69.8386 38.2386 65.3763 28.1818 58.8171 22.6705C56.6128 20.7955 56.3978 20.7386 55.4838 21.7045Z" fill="black"/>
  <path d="M22.5269 31.8182C19.4624 35.0568 17.4194 39.3182 16.5592 44.3182C15.4302 50.6818 17.6882 58.3523 22.2044 63.2955C24.6775 66.0795 26.0216 66.4205 27.0431 64.7159C27.4732 63.9773 27.0968 63.125 25.1076 60.6818C21.4517 56.1932 20.2151 52.8977 20.2151 47.7273C20.1614 42.6136 21.7205 38.5227 25.2151 34.4886C27.5269 31.875 27.8495 30.7955 26.7743 29.6591C25.7527 28.5795 25.3764 28.8068 22.5269 31.8182Z" fill="black"/>
  <path d="M49.2472 30.2273C48.3332 31.5909 48.387 31.7614 51.4515 35.1705C54.6773 38.6932 55.645 41.6477 55.645 47.7273C55.645 53.9773 54.7311 56.3636 50.6988 60.9091C48.7096 63.1818 48.4407 63.8068 48.9246 64.7159C49.8924 66.7045 50.4838 66.5909 53.2257 63.8636C59.9999 57.1591 61.7741 46.3636 57.473 37.3864C55.9676 34.2614 51.6128 28.9773 50.5375 28.9773C50.2687 28.9773 49.6773 29.5454 49.2472 30.2273Z" fill="black"/>
  <path d="M94.6236 37.5568C86.9354 38.8068 82.8494 43.5227 82.7957 51.0795C82.7957 59.7159 88.3871 64.7727 97.7957 64.7727C102.15 64.7727 105.914 63.0682 108.441 60.0568C111.29 56.5909 111.559 51.8182 108.978 49.7727C107.634 48.6932 106.72 48.5795 101.183 48.5795H94.8924L94.7311 50.1704C94.4086 52.8977 95.3225 53.4091 100.645 53.4091C105.914 53.4091 106.774 53.9773 105.161 56.5341C103.763 58.75 101.237 59.8864 97.3118 59.8864C94.4623 59.9432 93.4408 59.6591 91.8279 58.5227C89.1935 56.6477 87.9569 54.2614 87.9569 51.0795C87.9569 45.4545 92.2043 41.7045 98.0645 42.2159C99.8924 42.3864 102.258 43.0682 103.817 43.9204C107.366 45.9091 109.731 45 108.871 41.9886C108.387 40.4545 104.462 38.2386 101.452 37.7841C100 37.6136 98.4408 37.3295 97.9569 37.2727C97.4193 37.2159 95.9677 37.3295 94.6236 37.5568Z" fill="black"/>
  <path d="M170.699 38.2955C167.419 39.375 166.236 40.2273 165.323 42.0455C163.602 45.5114 164.785 50.2841 167.688 51.7045C168.441 52.0455 172.312 52.5568 176.344 52.8409C180.323 53.125 184.032 53.5227 184.516 53.6932C185.753 54.2045 186.236 55.9659 185.484 57.3295C184.086 60.1136 173.925 60.5114 169.193 57.9545C166.183 56.3636 164.785 56.8182 164.785 59.4318C164.785 62.8977 170.968 65.1136 179.301 64.6023C187.204 64.1477 190.323 61.9886 190.753 56.6477C191.183 50.7955 187.742 48.6932 176.613 48.0682C170.269 47.6705 168.548 46.9318 169.677 45C171.774 41.4773 181.398 41.4773 186.129 45C186.828 45.5114 187.312 45.5114 188.387 45C191.398 43.5795 189.193 39.8864 184.355 38.4091C180.968 37.3295 173.763 37.2727 170.699 38.2955Z" fill="black"/>
  <path d="M34.4087 38.6932C32.6345 39.4318 30.7528 41.3636 29.7313 43.4091C28.656 45.5682 28.656 49.8864 29.785 52.1591C30.6452 53.9205 33.2796 56.3068 35.1076 56.9886C35.914 57.3295 36.0216 58.3523 36.0216 67.5568C36.0216 78.75 36.3979 80.8523 38.3334 80.5682C39.5162 80.3977 39.5162 80.3409 39.6775 69.0341L39.8388 57.6705L42.4194 56.1364C46.9893 53.4659 48.4947 48.125 46.1291 43.1818C44.0861 39.0341 38.656 36.9318 34.4087 38.6932ZM40.8065 42.8409C45.5915 45.4545 43.5485 53.3523 38.1183 53.4091C34.5162 53.4091 31.9356 49.8864 32.9033 46.1932C33.7635 42.6136 37.4732 41.0795 40.8065 42.8409Z" fill="black"/>
  <path d="M124.731 39.1477C124.032 40.5682 124.032 60.7955 124.731 62.7273L125.269 64.2045H135.538C143.817 64.2045 146.183 64.0341 147.581 63.2955C150 62.1023 151.183 60.0568 151.237 56.9318C151.237 54.7159 151.022 54.1477 149.57 52.7841C147.85 51.1932 147.366 50 148.387 50C149.194 50 150.538 46.8182 150.538 44.8864C150.538 42.3864 149.194 40 147.258 38.9773C145.86 38.2386 143.548 38.0682 135.43 38.0682C125.968 38.0682 125.269 38.125 124.731 39.1477ZM144.946 44.0341C145.753 45.3409 145.753 45.5682 144.946 46.875C144.086 48.2955 143.925 48.2955 136.882 48.2955H129.677L129.355 46.875C129.14 46.0795 129.14 44.8295 129.355 44.0341L129.677 42.6136H136.882C143.925 42.6136 144.086 42.6136 144.946 44.0341ZM144.731 54.0909C145.591 54.8295 145.86 55.6818 145.753 57.4432C145.645 59.0909 143.172 59.6591 136.29 59.6591H129.624L129.301 57.7273C129.086 56.6477 129.086 55.2273 129.301 54.6023C129.624 53.4659 130 53.4091 136.774 53.4091C141.613 53.4091 144.14 53.6364 144.731 54.0909Z" fill="black"/>
</svg>