<svg xmlns="http://www.w3.org/2000/svg" width="200" height="200" viewBox="0 0 200 200" fill="none">
  <path d="M54.421 15.4737C44.1052 26 39.2631 34.8421 36.421 48.7369C33.2631 63.8947 35.0526 76.8421 42.2105 91.3684C47.4736 102 58.421 114.105 62.3158 113.474C67.0526 112.842 65.8947 108.947 59.2631 102.211C48.6315 91.579 42.8421 77.7895 42.8421 62.6316C42.7368 46.7368 47.7894 33.7895 58.6315 22.1053C65.3684 14.8421 66.2105 12.9474 64 10.7368C61.8947 8.63158 60.6315 9.26316 54.421 15.4737Z" fill="black"/>
  <path d="M136 10.7368C133.789 12.9474 134.632 14.9474 140.842 21.4737C152.316 33.4737 157.158 45.0526 157.158 61.0526C157.263 77.579 151.895 91.2632 140.737 102.421C134 109.158 133.053 112.842 137.789 113.474C141.684 114.105 152.421 102.211 157.684 91.6842C170.737 65.579 166.316 36.2105 146.105 15.6842C139.895 9.36842 138.21 8.52632 136 10.7368Z" fill="black"/>
  <path d="M68.9473 29.5789C65.9999 32.3158 62.6315 37.0526 60.2105 41.8947C56.421 49.6842 56.3157 50.1053 56.3157 62C56.3157 73.0526 56.6315 74.7368 59.1578 80.3158C62.7368 87.8947 72.1052 98.1053 75.1578 97.6842C79.1578 97.1579 78.5263 92.8421 73.8947 88C71.4736 85.6842 68.3157 81.0526 66.6315 77.8947C63.9999 72.7368 63.6842 70.9474 63.6842 62.1053C63.6842 53.4737 64.1052 51.2632 66.421 46.3158C67.8947 43.1579 71.1578 38.3158 73.5789 35.579C78.1052 30.5263 78.7368 28.6316 76.6315 26.5263C74.7368 24.6316 73.9999 24.9474 68.9473 29.5789Z" fill="black"/>
  <path d="M123.368 26.5263C121.263 28.6316 121.895 30.6316 126.21 35.2631C128.526 37.7895 131.684 42.3158 133.368 45.4737C136 50.5263 136.316 52.1053 136.316 61.5789C136.316 74.1053 134.421 79.1579 126.947 87.1579C121.789 92.6316 120.842 96.3158 124.21 97.3684C127.158 98.3158 132 94.3158 136.842 87.1579C148.947 68.9474 147.053 46.3158 132.105 30.8421C126.421 24.9474 125.474 24.421 123.368 26.5263Z" fill="black"/>
  <path d="M91.0526 45.1579C81.7894 50.8421 78.8421 59.6842 82.7368 69.5789C84.5263 73.7895 91.3684 80 94.421 80C95.4736 80 95.7894 83.8947 95.7894 99.8947C95.7894 122.632 96.2105 126 99.2631 126.947C103.579 128.316 104.21 125.368 104.21 102V80.2105L106.632 79.5789C115.579 77.3684 121.474 64.6316 117.789 55.0526C116.421 51.4737 112 46.6316 108.21 44.6316C104.105 42.5263 94.8421 42.7368 91.0526 45.1579ZM107.263 53.2632C113.579 58.5263 112.421 68.421 104.947 71.8947C92.3157 77.8947 82.421 60.2105 93.8947 52.2105C97.5789 49.5789 103.474 50.1053 107.263 53.2632Z" fill="black"/>
  <path d="M23.6842 149.368C15.3684 153.263 11.5789 159.368 11.5789 169.053C11.5789 179.263 16.7368 186 27.0526 189.053C33.2631 190.947 37.2631 190.947 43.7894 188.947C53.3684 186.105 59.7894 176.526 56.8421 169.368C55.2631 165.579 51.1579 164.211 41.1579 164.211C32.8421 164.211 30.5263 165.158 30.5263 168.632C30.5263 171.474 33.8947 172.632 42 172.632C48.5263 172.632 49.4737 172.842 49.4737 174.526C49.4737 176.947 45.7894 180.526 41.7894 182C37.4737 183.684 32.6315 183.368 27.6842 181.158C17.3684 176.421 17.1579 161.579 27.3684 156.316C31.6842 154.105 40.3158 154.316 45.2631 156.842C50.5263 159.579 53.3684 159.474 54.2105 156.842C56.6315 149.368 35.0526 144.105 23.6842 149.368Z" fill="black"/>
  <path d="M81.4736 148.842C79.6842 150.211 79.4736 151.789 79.4736 168.211C79.4736 181.684 79.7894 186.421 80.9473 187.684C82.1052 189.263 84.8421 189.474 98.8421 189.474C113.368 189.474 115.684 189.263 118.737 187.368C124.947 183.579 125.684 175.895 120.316 170.316C118.737 168.737 118 167.368 118.737 167.368C119.368 167.368 120.737 165.895 121.684 164.105C124.632 158.316 122 152.105 115.053 148.526C111.474 146.737 84.1052 146.947 81.4736 148.842ZM113.684 157.895C114.526 159.368 114.526 160.632 113.684 162.105C112.632 164 111.474 164.211 99.9999 164.211H87.3684V160.737C87.3684 158.737 87.6842 156.842 88.1052 156.526C88.421 156.105 94.1052 155.789 100.632 155.789C111.474 155.789 112.632 156 113.684 157.895ZM114.842 175.579C115.474 177.368 115.263 178.421 113.579 180.105C111.684 182 110.316 182.105 99.6842 181.895L87.8947 181.579L87.5789 178.632C86.8421 172.737 87.2631 172.526 101.158 172.842C113.368 173.158 114 173.263 114.842 175.579Z" fill="black"/>
  <path d="M152.737 149.684C147.053 152.421 144.526 157.474 145.895 163.053C147.368 168.842 151.579 170.632 165.895 171.474C179.053 172.316 181.895 173.579 180.526 177.789C179.579 181.053 175.474 182.316 166.632 182.316C161.053 182.316 157.789 181.789 154.421 180.105C148.737 177.368 147.789 177.368 146.211 180.211C145.158 182.211 145.368 182.842 148.105 185.263C154.421 190.947 172.947 192 182.105 187.368C187.158 184.737 188.421 182.632 188.421 176.316C188.421 167.579 183.684 164.947 165.053 163.684C159.368 163.263 154.421 162.526 154.105 162C152.947 160 154.947 156.947 158.105 155.895C163.474 154 172.737 154.526 177.368 156.842C184.421 160.421 189.053 158.737 186.211 153.474C182.947 147.368 162.211 144.947 152.737 149.684Z" fill="black"/>
</svg>